<svg id="_0260_bug_fixing" data-name="0260_bug_fixing" xmlns="http://www.w3.org/2000/svg" viewBox="0 0 500 500" data-imageid="bug-fixing-1-91" imageName="Bug Fixing 1" class="illustrations_image" style="width: 185px;"><defs><style>.cls-1_bug-fixing-1-91{fill:#68e1fd;}.cls-2_bug-fixing-1-91{fill:#093f68;}.cls-3_bug-fixing-1-91{fill:#ffc9b0;}.cls-4_bug-fixing-1-91{fill:#725858;}.cls-5_bug-fixing-1-91{fill:#fff;}.cls-6_bug-fixing-1-91{fill:#f56132;}.cls-7_bug-fixing-1-91{fill:#ffbc0e;}</style></defs><g id="character_bug-fixing-1-91"><path class="cls-1_bug-fixing-1-91 targetColor" d="M237.89,313.82S201.41,341,183.24,338.16c-9.4-1.45-18.63-5.71-26.64-10.6V384h-101V294.38a32.1,32.1,0,0,1,32.11-32.12h36.75a32.06,32.06,0,0,1,29.35,19.08c7.26,9.77,21.6,26.88,32.48,26.49,15.21-.57,30.88-9.36,30.88-9.36Z" style="fill: rgb(115, 169, 207);"/><path class="cls-2_bug-fixing-1-91" d="M156.6,385.82h-101A1.82,1.82,0,0,1,53.81,384V294.38a34,34,0,0,1,33.93-33.95h36.75a34,34,0,0,1,30.94,20c12.31,16.53,23.62,25.9,30.82,25.6,14.58-.55,29.91-9.05,30.06-9.13a1.81,1.81,0,0,1,2,.12L239,312.35a1.84,1.84,0,0,1,.74,1.47,1.8,1.8,0,0,1-.74,1.46c-1.51,1.13-37.31,27.61-56,24.69-7.65-1.18-15.89-4.28-24.53-9.21V384A1.83,1.83,0,0,1,156.6,385.82Zm-99.14-3.66h97.31v-54.6a1.83,1.83,0,0,1,2.79-1.56c9.23,5.64,18,9.12,26,10.36,14.87,2.33,43.47-17,51.27-22.56l-17.74-13.17c-3.83,2-17.29,8.53-30.66,9H186c-11.6,0-26-17-33.6-27.24a1.51,1.51,0,0,1-.2-.35,30.27,30.27,0,0,0-27.68-18H87.74a30.32,30.32,0,0,0-30.28,30.29Z"/><path class="cls-2_bug-fixing-1-91" d="M156.6,329.39a1.83,1.83,0,0,1-1.83-1.83v-21a1.83,1.83,0,0,1,3.66,0v21A1.83,1.83,0,0,1,156.6,329.39Z"/><path class="cls-2_bug-fixing-1-91" d="M156.6,337.51l-16-14.38H93.2S74,349.51,55.63,348.66V384h101Z"/><path class="cls-2_bug-fixing-1-91" d="M156.6,385.82h-101A1.83,1.83,0,0,1,53.8,384V348.66a1.82,1.82,0,0,1,.57-1.32,1.79,1.79,0,0,1,1.35-.51c17.23.78,35.82-24.53,36-24.78a1.85,1.85,0,0,1,1.48-.75h47.4a1.79,1.79,0,0,1,1.22.47l16,14.39a1.8,1.8,0,0,1,.61,1.35V384A1.83,1.83,0,0,1,156.6,385.82Zm-99.14-3.66h97.31V338.33L139.89,325H94.12c-3.28,4.31-19.75,24.78-36.66,25.54Z"/><rect class="cls-2_bug-fixing-1-91" x="94.83" y="263.96" width="9.38" height="64.01"/><path class="cls-2_bug-fixing-1-91" d="M104.21,329.8H94.83A1.83,1.83,0,0,1,93,328V264a1.83,1.83,0,0,1,1.83-1.83h9.38A1.82,1.82,0,0,1,106,264v64A1.82,1.82,0,0,1,104.21,329.8Zm-7.55-3.66h5.73V265.79H96.66Z"/><rect class="cls-2_bug-fixing-1-91" x="125.92" y="261.42" width="9.38" height="64.01" rx="1.34"/><path class="cls-2_bug-fixing-1-91" d="M132.86,327.27h-4.5a4.28,4.28,0,0,1-4.27-4.28V263.87a4.28,4.28,0,0,1,4.27-4.28h4.5a4.28,4.28,0,0,1,4.27,4.28V323A4.28,4.28,0,0,1,132.86,327.27Zm-4.5-64a.61.61,0,0,0-.61.62V323a.61.61,0,0,0,.61.62h4.5a.62.62,0,0,0,.61-.62V263.87a.62.62,0,0,0-.61-.62Z"/><path class="cls-3_bug-fixing-1-91" d="M105.92,258.12H123.2a0,0,0,0,1,0,0v13.28a4,4,0,0,1-4,4h-9.26a4,4,0,0,1-4-4V258.12a0,0,0,0,1,0,0Z" transform="matrix(0.99, -0.15, 0.15, 0.99, -38.49, 20.06)"/><path class="cls-2_bug-fixing-1-91" d="M113.46,277.42a9.18,9.18,0,0,1-9.06-7.8l-1.49-9.84a1.83,1.83,0,0,1,1.54-2.08l17.09-2.58a1.84,1.84,0,0,1,2.09,1.53l1.48,9.84a9.19,9.19,0,0,1-7.7,10.44l-2.58.39A10.65,10.65,0,0,1,113.46,277.42ZM106.8,261l1.21,8a5.52,5.52,0,0,0,6.28,4.63l2.58-.39h0a5.51,5.51,0,0,0,4.62-6.27l-1.21-8Z"/><path class="cls-4_bug-fixing-1-91" d="M48.36,223.33c-2.73-2.71-5-7.51-6.71-10.32a62.21,62.21,0,0,1-9.26-33.16c.2-9.86,3.33-19.8,9.64-27.37,2.94-3.52,6.64-6.57,11-7.88S62.61,144,66,147.06c1.61-11.92,13.5-20.21,25.38-22.12s23.93,1,35.78,3.08c5.13.9,10.47,1.64,15.49.25s9.66-5.44,10.15-10.63c0,.35,5.09,5.27,5.65,6.23a22.81,22.81,0,0,1,2.93,8.67c.84,6.53-1.62,11.83-4.24,17.6a2,2,0,0,0,.41,2.66c12.83,16.51,11.51,34.76,10.1,54.34l-10.88-.26c-4.56-.11-10,1.82-14.42,2.64l-33,6c-15.9,2.91-31,9.44-47.35,10.12-3.25.13-8.75.71-11.72-.87A8.31,8.31,0,0,1,48.36,223.33Z"/><path class="cls-2_bug-fixing-1-91" d="M56.67,227.71a16.21,16.21,0,0,1-7.24-1.29,10.22,10.22,0,0,1-2.36-1.79c-2.23-2.22-4.13-5.62-5.65-8.34-.48-.86-.92-1.66-1.34-2.33a63.66,63.66,0,0,1-9.52-34.15c.22-10.85,3.8-21,10.07-28.5,3.61-4.33,7.62-7.18,11.92-8.46A16.17,16.17,0,0,1,64.75,144c3.19-11.89,15.51-19.09,26.33-20.83,10.49-1.68,21.06.28,31.28,2.16,1.7.32,3.41.64,5.1.93,4.87.85,10,1.58,14.69.29,3.94-1.09,8.38-4.39,8.81-9a1.84,1.84,0,0,1,2-1.65,1.81,1.81,0,0,1,1.47,1c.34.42,1.47,1.59,2.31,2.45a29.54,29.54,0,0,1,3.28,3.66,24.73,24.73,0,0,1,3.17,9.37c.9,6.93-1.61,12.46-4.26,18.31l-.12.27a2.23,2.23,0,0,0-.17.43s.23.2.35.35c13.26,17.06,11.91,35.75,10.49,55.54A1.85,1.85,0,0,1,167.6,209l-10.88-.26c-2.8-.08-6.15.75-9.35,1.54-1.65.41-3.2.79-4.7,1.07l-33,6c-6,1.1-12,2.76-17.87,4.37-9.56,2.63-19.44,5.35-29.73,5.78-.44,0-.91,0-1.42.07C59.45,227.63,58.07,227.71,56.67,227.71Zm.74-81.91a13.28,13.28,0,0,0-3.82.56c-3.59,1.07-7,3.52-10.15,7.29-5.74,6.89-9,16.21-9.22,26.23a60,60,0,0,0,9,32.18c.43.71.9,1.55,1.4,2.44,1.41,2.53,3.17,5.67,5,7.53h0a6.17,6.17,0,0,0,1.49,1.15c2.13,1.13,6.47.89,9.33.73l1.47-.07c9.87-.41,19.54-3.07,28.9-5.65,5.91-1.63,12-3.31,18.2-4.44l33-6c1.39-.26,2.89-.63,4.48-1,3.44-.85,7-1.73,10.32-1.65l9.14.22c1.31-18.48,2.16-35.89-9.86-51.35A4.41,4.41,0,0,1,155,151.4a4.36,4.36,0,0,1,.48-2l.13-.28c2.54-5.6,4.73-10.43,4-16.33a21,21,0,0,0-2.69-8c-.25-.37-1.76-1.93-2.76-3l-.41-.43c-1.91,4.45-6.33,7.46-10.56,8.63-5.41,1.49-11,.72-16.3-.2-1.71-.3-3.42-.62-5.14-.94-9.91-1.83-20.17-3.72-30-2.15C81,128.46,69.32,136.08,67.8,147.31a1.83,1.83,0,0,1-3,1.1A10.91,10.91,0,0,0,57.41,145.8Zm97.2-28Zm0,0Zm0,0Z"/><ellipse class="cls-3_bug-fixing-1-91" cx="58.33" cy="225.25" rx="16.8" ry="14.47" transform="translate(-32.93 11.21) rotate(-8.57)"/><path class="cls-2_bug-fixing-1-91" d="M57.56,241.61a19.54,19.54,0,0,1-10.42-2.92,14.94,14.94,0,0,1-3.47-23,20.6,20.6,0,0,1,25.85-3.89,14.93,14.93,0,0,1,3.47,23,20,20,0,0,1-12.23,6.58A21.64,21.64,0,0,1,57.56,241.61Zm1.55-29.07a18.43,18.43,0,0,0-2.66.2,16.29,16.29,0,0,0-10,5.35,11.27,11.27,0,0,0,2.64,17.5,16.93,16.93,0,0,0,21.13-3.19A11.65,11.65,0,0,0,73.13,223h0a11.64,11.64,0,0,0-5.55-8.11A15.91,15.91,0,0,0,59.11,212.54Z"/><ellipse class="cls-3_bug-fixing-1-91" cx="155.16" cy="210.65" rx="16.8" ry="14.47" transform="matrix(0.99, -0.15, 0.15, 0.99, -29.67, 25.49)"/><path class="cls-2_bug-fixing-1-91" d="M154.42,227c-8.86,0-16.48-5.63-17.68-13.59-1.34-8.89,5.84-17.36,16-18.9a19.94,19.94,0,0,1,13.62,2.69,15.22,15.22,0,0,1,7.23,10.66h0a15.25,15.25,0,0,1-3.76,12.32,20,20,0,0,1-12.23,6.58A21.25,21.25,0,0,1,154.42,227Zm1.52-29.07a18.43,18.43,0,0,0-2.66.2c-8.16,1.23-14,7.84-12.92,14.74s8.53,11.5,16.69,10.27a16.29,16.29,0,0,0,10-5.35,11.65,11.65,0,0,0,2.91-9.39h0a11.64,11.64,0,0,0-5.55-8.11A15.91,15.91,0,0,0,155.94,197.94Z"/><path class="cls-3_bug-fixing-1-91" d="M114.22,264.53A50.66,50.66,0,0,1,56.58,222l-5.49-36.37c10.26-2.39,15-11.61,15.57-21.35,22.16,16.15,40.67,15.24,45.18,9.07,0,0-14.2-3.77-15.74-14.71a104.93,104.93,0,0,0,27.8,9.06c11,1.84,25.87-7.19,25.87-7.19l7,46.38A50.66,50.66,0,0,1,114.22,264.53Z"/><path class="cls-2_bug-fixing-1-91" d="M106.64,266.93a52.56,52.56,0,0,1-51.87-44.67l-5.49-36.37a1.83,1.83,0,0,1,1.4-2c8.29-1.93,13.58-9.28,14.16-19.67a1.8,1.8,0,0,1,1-1.55,1.83,1.83,0,0,1,1.86.18c18.71,13.64,34.32,14.54,40.5,11.21-4.6-1.88-12.73-6.4-13.95-15.12A1.83,1.83,0,0,1,96.94,157a104,104,0,0,0,27.26,8.87c10.23,1.72,24.48-6.86,24.62-6.94a1.86,1.86,0,0,1,1.73-.1,1.83,1.83,0,0,1,1,1.39l7,46.38a52.55,52.55,0,0,1-44.07,59.73h0A53.84,53.84,0,0,1,106.64,266.93Zm7.58-2.4h0ZM53.14,187l5.25,34.76A48.83,48.83,0,1,0,155,207.15l-6.59-43.76c-4.77,2.52-15.79,7.6-24.76,6.1a106.93,106.93,0,0,1-24.51-7.43c3.54,6.84,13.11,9.48,13.23,9.51a1.83,1.83,0,0,1,1,2.85c-5,6.88-23.26,8-45.15-6.85C66.73,177.34,61.3,184.38,53.14,187Z"/><circle class="cls-2_bug-fixing-1-91" cx="95.75" cy="211.18" r="4.69"/><circle class="cls-2_bug-fixing-1-91" cx="135.3" cy="204.43" r="4.69"/><path class="cls-2_bug-fixing-1-91" d="M108.51,227.84h-.36a1.83,1.83,0,0,1-1.79-1.87,1.91,1.91,0,0,1,1.88-1.78,22.29,22.29,0,0,0,6.49-.85c-.19-1.58-2.59-6-5.47-9.91a1.83,1.83,0,0,1,3-2.16c2.12,2.91,7,10,6,13.36a2.85,2.85,0,0,1-1.68,1.91A23.54,23.54,0,0,1,108.51,227.84Z"/><path class="cls-2_bug-fixing-1-91" d="M73.48,198.84a3.66,3.66,0,0,1-.66-7.26l22-4.06a3.66,3.66,0,0,1,1.33,7.19l-22,4.07A3.79,3.79,0,0,1,73.48,198.84Z"/><path class="cls-2_bug-fixing-1-91" d="M117.85,191.11a3.66,3.66,0,0,1-.4-7.29l22.23-2.46a3.66,3.66,0,0,1,.81,7.27l-22.23,2.46Z"/><path class="cls-2_bug-fixing-1-91" d="M79.26,224.78A6.85,6.85,0,0,1,72.52,219l-2.08-13.81A1.83,1.83,0,0,1,72,203.07l32.19-4.85a1.87,1.87,0,0,1,1.36.34,1.8,1.8,0,0,1,.72,1.19l2.09,13.81a6.84,6.84,0,0,1-5.74,7.78L80.3,224.7A7.28,7.28,0,0,1,79.26,224.78Zm-4.93-18.36,1.81,12a3.16,3.16,0,0,0,3.61,2.66L102,217.72h0a3.18,3.18,0,0,0,2.67-3.61l-1.81-12Z"/><path class="cls-2_bug-fixing-1-91" d="M119.25,218.75a6.82,6.82,0,0,1-6.75-5.81l-2.08-13.81A1.84,1.84,0,0,1,112,197l32.18-4.85a1.82,1.82,0,0,1,1.36.34,1.85,1.85,0,0,1,.73,1.19l2.08,13.82a6.83,6.83,0,0,1-5.74,7.77h0l-22.29,3.36A6,6,0,0,1,119.25,218.75Zm-4.94-18.36,1.81,12a3.16,3.16,0,0,0,1.25,2.08,3.12,3.12,0,0,0,2.36.59L142,211.7a3.22,3.22,0,0,0,2.09-1.26,3.15,3.15,0,0,0,.58-2.36l-1.81-12Zm28,13.11h0Z"/><path class="cls-2_bug-fixing-1-91" d="M51.23,215.29a1.83,1.83,0,0,1-.27-3.64l21.81-3.29a1.86,1.86,0,0,1,2.09,1.54A1.83,1.83,0,0,1,73.32,212l-21.81,3.29Z"/><path class="cls-2_bug-fixing-1-91" d="M145.31,201.11a1.83,1.83,0,0,1-.27-3.64l8-1.2a1.83,1.83,0,1,1,.55,3.62l-7.95,1.2Z"/><path class="cls-2_bug-fixing-1-91" d="M103.27,246.59a22.73,22.73,0,0,1-5.79-.72c-6.07-1.59-10.89-5.76-14.34-12.38a1.83,1.83,0,0,1,3.24-1.69c3,5.66,7,9.21,12,10.53,10.09,2.66,21.09-4.36,21.2-4.44a1.83,1.83,0,0,1,2,3.07C121.16,241.23,112.8,246.59,103.27,246.59Z"/></g><g id="device_bug-fixing-1-91"><path class="cls-5_bug-fixing-1-91" d="M457.4,165.25V323.71a13.8,13.8,0,0,1-13.8,13.8H215.09a13.81,13.81,0,0,1-13.8-13.8V165.25a13.8,13.8,0,0,1,13.8-13.81H443.6A13.8,13.8,0,0,1,457.4,165.25Z"/><path class="cls-2_bug-fixing-1-91" d="M443.59,339.34H215.09a15.72,15.72,0,0,1-11.39-4.93,15.52,15.52,0,0,1-4.24-10.7V165.25a15.65,15.65,0,0,1,15.63-15.64h228.5a15.66,15.66,0,0,1,15.64,15.64V323.71A15.65,15.65,0,0,1,443.59,339.34ZM215.09,153.27a12,12,0,0,0-12,12V323.71a11.88,11.88,0,0,0,3.24,8.19,12,12,0,0,0,8.73,3.79h228.5a12,12,0,0,0,12-12V165.25a12,12,0,0,0-12-12Z"/><rect class="cls-1_bug-fixing-1-91 targetColor" x="215.08" y="164.15" width="228.5" height="135.35" style="fill: rgb(115, 169, 207);"/><path class="cls-2_bug-fixing-1-91" d="M443.59,301.33H215.08a1.83,1.83,0,0,1-1.83-1.83V164.15a1.83,1.83,0,0,1,1.83-1.83H443.59a1.82,1.82,0,0,1,1.82,1.83V299.5A1.82,1.82,0,0,1,443.59,301.33Zm-226.68-3.66H441.76V166H216.91Z"/><path class="cls-1_bug-fixing-1-91 targetColor" d="M359.49,337.52H299.2s5.54,17.75-17,37.74H376.5C354,355.27,359.49,337.52,359.49,337.52Z" style="fill: rgb(115, 169, 207);"/><path class="cls-2_bug-fixing-1-91" d="M376.5,377.09H282.19a1.83,1.83,0,0,1-1.21-3.2c21.41-19,16.52-35.66,16.47-35.82a1.83,1.83,0,0,1,1.75-2.38h60.29a1.84,1.84,0,0,1,1.75,2.37,23.6,23.6,0,0,0,.14,10.71c1.29,6,5.17,15.23,16.33,25.12a1.83,1.83,0,0,1-1.21,3.2Zm-89.69-3.66h85.07c-15.23-15.22-15.34-28.76-14.62-34.08H301.42C302.15,344.67,302,358.21,286.81,373.43Z"/><path class="cls-2_bug-fixing-1-91" d="M329.34,325a7.82,7.82,0,1,1,7.83-7.82A7.83,7.83,0,0,1,329.34,325Zm0-12a4.17,4.17,0,1,0,4.17,4.16A4.17,4.17,0,0,0,329.34,313Z"/><rect class="cls-1_bug-fixing-1-91 targetColor" x="269.58" y="375.26" width="119.52" height="8.93" rx="4.46" style="fill: rgb(115, 169, 207);"/><path class="cls-2_bug-fixing-1-91" d="M384.64,386H274.05a6.29,6.29,0,1,1,0-12.58H384.64a6.29,6.29,0,1,1,0,12.58Zm-110.59-8.92a2.64,2.64,0,1,0,0,5.27H384.64a2.64,2.64,0,1,0,0-5.27Z"/><path class="cls-5_bug-fixing-1-91" d="M421.46,279.9H404a1.83,1.83,0,0,1,0-3.65h17.46a1.83,1.83,0,1,1,0,3.65Z"/><path class="cls-5_bug-fixing-1-91" d="M431,268.32H404a1.83,1.83,0,0,1,0-3.66h27a1.83,1.83,0,1,1,0,3.66Z"/><path class="cls-5_bug-fixing-1-91" d="M431,256.73H404a1.83,1.83,0,0,1,0-3.66h27a1.83,1.83,0,1,1,0,3.66Z"/><path class="cls-5_bug-fixing-1-91" d="M429.06,178.59H404a1.83,1.83,0,0,1,0-3.66h25.06a1.83,1.83,0,1,1,0,3.66Z"/><path class="cls-5_bug-fixing-1-91" d="M429.06,189.37h-7.6a1.83,1.83,0,1,1,0-3.65h7.6a1.83,1.83,0,1,1,0,3.65Z"/><path class="cls-5_bug-fixing-1-91" d="M412.73,189.37H404a1.83,1.83,0,0,1,0-3.65h8.73a1.83,1.83,0,1,1,0,3.65Z"/><path class="cls-5_bug-fixing-1-91" d="M256.6,287.35H226.75a1.82,1.82,0,0,1-1.82-1.83V273.11a1.82,1.82,0,0,1,1.82-1.83H256.6a1.83,1.83,0,0,1,1.83,1.83v12.41A1.83,1.83,0,0,1,256.6,287.35Zm-28-3.66h26.19v-8.75H228.58Z"/><path class="cls-5_bug-fixing-1-91" d="M237.45,287.35a1.82,1.82,0,0,1-1.82-1.83V275.29a1.83,1.83,0,1,1,3.65,0v10.23A1.82,1.82,0,0,1,237.45,287.35Z"/></g><g id="line_bug-fixing-1-91"><path class="cls-2_bug-fixing-1-91" d="M467.62,386H32.38a1.83,1.83,0,1,1,0-3.65H467.62a1.83,1.83,0,1,1,0,3.65Z"/></g><g id="bug_bug-fixing-1-91"><path class="cls-2_bug-fixing-1-91" d="M297.74,219.18a3.81,3.81,0,0,1-1.43-.29L280.12,212a3.63,3.63,0,0,1-2.16-2.68l-3.37-17.6a3.65,3.65,0,1,1,7.18-1.37l3,15.68,14.39,6.1a3.66,3.66,0,0,1-1.42,7Z"/><path class="cls-2_bug-fixing-1-91" d="M278.18,282.94a4,4,0,0,1-.69-.06,3.66,3.66,0,0,1-2.9-4.28L278,261a3.64,3.64,0,0,1,2.16-2.68l16.19-6.86a3.66,3.66,0,1,1,2.85,6.74l-14.39,6.1-3,15.68A3.67,3.67,0,0,1,278.18,282.94Z"/><path class="cls-2_bug-fixing-1-91" d="M271.44,244.2a3.65,3.65,0,0,1-2.85-5.95l4.33-5.38a3.67,3.67,0,0,1,2.85-1.36h17.09a3.66,3.66,0,0,1,0,7.32H277.52l-3.23,4A3.66,3.66,0,0,1,271.44,244.2Z"/><path class="cls-2_bug-fixing-1-91" d="M360.19,219.18a3.66,3.66,0,0,1-1.42-7l14.39-6.1,3-15.68a3.65,3.65,0,1,1,7.18,1.37L380,209.34a3.66,3.66,0,0,1-2.17,2.68l-16.19,6.87A3.81,3.81,0,0,1,360.19,219.18Z"/><path class="cls-2_bug-fixing-1-91" d="M379.75,282.94a3.66,3.66,0,0,1-3.59-3l-3-15.68-14.39-6.1a3.66,3.66,0,1,1,2.85-6.74l16.19,6.86A3.68,3.68,0,0,1,380,261l3.36,17.61a3.66,3.66,0,0,1-2.9,4.28A4.11,4.11,0,0,1,379.75,282.94Z"/><path class="cls-2_bug-fixing-1-91" d="M386.49,244.2a3.65,3.65,0,0,1-2.85-1.36l-3.23-4H365.07a3.66,3.66,0,1,1,0-7.32h17.09a3.67,3.67,0,0,1,2.85,1.36l4.33,5.38a3.65,3.65,0,0,1-2.85,5.95Z"/><circle class="cls-6_bug-fixing-1-91" cx="328.95" cy="235.17" r="36.02"/><path class="cls-2_bug-fixing-1-91" d="M329,273a37.85,37.85,0,1,1,37.85-37.85A37.89,37.89,0,0,1,329,273Zm0-72a34.2,34.2,0,1,0,34.2,34.2A34.23,34.23,0,0,0,329,201Z"/><path class="cls-2_bug-fixing-1-91" d="M348.63,204.78,329,218.51l-19.68-13.73c0-7.58,8.81-13.73,19.68-13.73S348.63,197.2,348.63,204.78Z"/><path class="cls-2_bug-fixing-1-91" d="M329,220.33a1.81,1.81,0,0,1-1-.33l-19.68-13.72a1.82,1.82,0,0,1-.78-1.5c0-8.58,9.64-15.56,21.5-15.56s21.51,7,21.51,15.56a1.82,1.82,0,0,1-.78,1.5L330,220A1.84,1.84,0,0,1,329,220.33Zm-17.8-16.47L329,216.27l17.8-12.41c-.71-6.13-8.42-11-17.8-11S311.86,197.73,311.15,203.86Zm37.48.92h0Z"/><path class="cls-2_bug-fixing-1-91" d="M329,273a1.83,1.83,0,0,1-1.83-1.83V218.5a1.83,1.83,0,0,1,3.66,0v52.69A1.83,1.83,0,0,1,329,273Z"/><path class="cls-2_bug-fixing-1-91" d="M340.33,195.41a1.77,1.77,0,0,1-.67-.13,1.83,1.83,0,0,1-1-2.37c.2-.49,4.81-11.92,11.21-17.52a1.83,1.83,0,0,1,2.41,2.75c-5.75,5-10.17,16-10.22,16.12A1.81,1.81,0,0,1,340.33,195.41Z"/><path class="cls-2_bug-fixing-1-91" d="M316.21,195.41a1.81,1.81,0,0,1-1.69-1.15c0-.11-4.48-11.1-10.22-16.12a1.83,1.83,0,1,1,2.4-2.75c6.41,5.6,11,17,11.21,17.52a1.82,1.82,0,0,1-1,2.37A1.79,1.79,0,0,1,316.21,195.41Z"/></g><g id="wrench_bug-fixing-1-91"><path class="cls-1_bug-fixing-1-91 targetColor" d="M64,299.5s35.41,44.66,54,44.09,60.15-51.52,60.15-51.52l-19.54-22.53S124.83,308,115.82,303.47s-27.89-26.29-27.89-26.29" style="fill: rgb(115, 169, 207);"/><path class="cls-2_bug-fixing-1-91" d="M117.67,345.43c-19.35,0-53.63-42.95-55.09-44.79a1.83,1.83,0,1,1,2.86-2.27,286.06,286.06,0,0,0,19.91,22.11c14,13.94,25.2,21.29,32.29,21.29H118c14.16-.43,45.6-34.91,57.81-49.67l-17.17-19.79c-7.48,8.38-30.64,33.29-41.29,33.29a5.21,5.21,0,0,1-2.3-.49c-9.23-4.62-27.67-25.84-28.45-26.74A1.83,1.83,0,1,1,89.31,276c.19.21,18.75,21.56,27.33,25.85,4.8,2.38,24.8-15.52,40.59-33.5a1.86,1.86,0,0,1,1.38-.62h0a1.83,1.83,0,0,1,1.38.63l19.54,22.53a1.82,1.82,0,0,1,0,2.35c-1.72,2.11-42.31,51.62-61.51,52.2Z"/><path class="cls-7_bug-fixing-1-91" d="M262.36,234.85a15.59,15.59,0,0,0,6.55-16.6l-9.65,6.4-6.38-1.88,0-7.79,9.35-6.2a15.57,15.57,0,0,0-24,13l-59.92,39.48a8.7,8.7,0,0,0,9.61,14.5l59.91-39.48A15.57,15.57,0,0,0,262.36,234.85Zm-81.43,35a3.83,3.83,0,1,1,5.31,1.08A3.83,3.83,0,0,1,180.93,269.9Z"/><path class="cls-2_bug-fixing-1-91" d="M183.1,279a10.18,10.18,0,0,1-2.12-.22,10.52,10.52,0,0,1-3.72-19.08l59.13-39a17.41,17.41,0,0,1,26.8-13.5,1.83,1.83,0,0,1,0,3.07L254.68,216l0,5.45,4.26,1.25,8.94-5.92a1.82,1.82,0,0,1,2.79,1.1,17.46,17.46,0,0,1-7.33,18.54h0A17.35,17.35,0,0,1,248,238.29l-59.13,39A10.46,10.46,0,0,1,183.1,279Zm70.66-70.88A13.73,13.73,0,0,0,240,221.77a1.85,1.85,0,0,1-.83,1.51l-59.91,39.48a6.86,6.86,0,1,0,7.59,11.44l59.91-39.48a1.85,1.85,0,0,1,1.71-.16,13.75,13.75,0,0,0,19-13.18l-7.24,4.79a1.82,1.82,0,0,1-1.52.23l-6.38-1.88a1.85,1.85,0,0,1-1.31-1.75l0-7.79a1.82,1.82,0,0,1,.82-1.53l6.73-4.46A13.71,13.71,0,0,0,253.76,208.13Zm8.6,26.72h0Zm-78.23,38.6a5.52,5.52,0,0,1-1.14-.12,5.66,5.66,0,1,1,5.85-8.67,5.67,5.67,0,0,1,.83,4.26,5.67,5.67,0,0,1-5.54,4.53Zm0-7.66a2,2,0,0,0-1.1.33,2,2,0,0,0-.57,2.77h0a2,2,0,0,0,1.27.85,2,2,0,0,0,1.5-.29,2,2,0,0,0,.57-2.78,2,2,0,0,0-1.27-.85A1.87,1.87,0,0,0,184.12,265.79Z"/><path class="cls-3_bug-fixing-1-91" d="M160.78,270.75A85.62,85.62,0,0,1,172.27,258c6.76-6.06,11-11.14,15.63-11.56s22.81,4.09,20.69,10.92-7.5,19.26-14.52,19.26a37.65,37.65,0,0,0-11.24,1.46l-8.24,9.61Z"/><path class="cls-2_bug-fixing-1-91" d="M174.59,289.52h0a1.83,1.83,0,0,1-1.4-.67l-13.81-16.94a1.82,1.82,0,0,1-.07-2.21,86.16,86.16,0,0,1,11.76-13.07c1.47-1.31,2.81-2.58,4.07-3.76,4.67-4.4,8.36-7.87,12.62-8.25s17.15,2.56,21.36,7.77a5.73,5.73,0,0,1,1.24,5.51c-1.06,3.43-6.83,20.55-16.26,20.55a39.18,39.18,0,0,0-10.21,1.22L176,288.88A1.83,1.83,0,0,1,174.59,289.52ZM163.1,270.7l11.52,14.14,6.82-7.95a1.76,1.76,0,0,1,.8-.54,38.9,38.9,0,0,1,11.84-1.56c4.95,0,10.09-9.31,12.77-18a2.15,2.15,0,0,0-.59-2.13c-3.19-3.93-14.78-6.71-18.2-6.42-3,.26-6.12,3.2-10.43,7.26-1.28,1.2-2.65,2.49-4.14,3.83A84.57,84.57,0,0,0,163.1,270.7Z"/></g></svg>